<svg id="Layer_1" data-name="Layer 1" xmlns="http://www.w3.org/2000/svg" viewBox="0 0 489.59 375.03">
  <title>yr-media-logo</title>
  <g>
    <path d="M395.54,394.81h15.17a1.91,1.91,0,0,1,2.15,2.16v61.57a1.9,1.9,0,0,1-2.15,2.15h-8.4a1.9,1.9,0,0,1-2.15-2.15V410h-.41L389.29,444.3a2.51,2.51,0,0,1-2.56,2h-8.6a2.51,2.51,0,0,1-2.56-2l-10.66-34.43h-.41v48.67a2.56,2.56,0,0,1-.41,1.69,2.34,2.34,0,0,1-1.74.46H354a1.9,1.9,0,0,1-2.15-2.15V397a1.9,1.9,0,0,1,2.15-2.16h15.27a1.94,1.94,0,0,1,1.94,1.44L382,432.41h.62l11-36.16a1.74,1.74,0,0,1,1.94-1.44" transform="translate(-140.3 -135.06)" style="fill: #fff"/>
    <path d="M467.46,460.69H434a1.9,1.9,0,0,1-2.15-2.15V397a1.9,1.9,0,0,1,2.15-2.14h33.5c1.37,0,2.05.71,2.05,2.14v7c0,1.44-.68,2.15-2.05,2.15H446.05c-.82,0-1.23.38-1.23,1.13v13.32c0,.75.41,1.12,1.23,1.12h17.52a1.9,1.9,0,0,1,2.15,2.16v7a1.9,1.9,0,0,1-2.15,2.16H446.05c-.82,0-1.23.37-1.23,1.12v14.24c0,.75.41,1.13,1.23,1.13h21.41c1.37,0,2.05.72,2.05,2.15v7c0,1.43-.68,2.15-2.05,2.15" transform="translate(-140.3 -135.06)" style="fill: #fff"/>
    <path d="M500.65,449.42h11.17q3.29,0,4.66-1.38c.93-.93,1.39-2.48,1.39-4.67V412.13c0-2.19-.46-3.74-1.39-4.67s-2.47-1.38-4.66-1.38H500.65a1,1,0,0,0-1.12,1.13v41.08a1,1,0,0,0,1.12,1.13m-14.13,9.12V397a1.9,1.9,0,0,1,2.15-2.16H514q8,0,12.45,4.36t4.46,12.34V444q0,8-4.46,12.34T514,460.69h-25.3a1.9,1.9,0,0,1-2.15-2.15" transform="translate(-140.3 -135.06)" style="fill: #fff"/>
    <path d="M562.33,397v61.58a1.9,1.9,0,0,1-2.15,2.15h-8.71a1.9,1.9,0,0,1-2.15-2.15V397a1.9,1.9,0,0,1,2.15-2.15h8.71a1.9,1.9,0,0,1,2.15,2.15" transform="translate(-140.3 -135.06)" style="fill: #fff"/>
    <path d="M603.51,407.21l-7.37,29.61H611.3l-7.38-29.61Zm-14.85,53.48h-9.84c-1.23,0-1.64-.72-1.23-2.15L593.78,397a2.93,2.93,0,0,1,3.07-2.14h13.63c1.7,0,2.73.71,3.07,2.14l16.19,61.58c.41,1.43,0,2.15-1.23,2.15h-9.84a2,2,0,0,1-1.53-.46,3.47,3.47,0,0,1-.62-1.69l-2.86-11.27h-20l-2.87,11.27a3.16,3.16,0,0,1-.67,1.69,2.06,2.06,0,0,1-1.48.46" transform="translate(-140.3 -135.06)" style="fill: #fff"/>
    <path d="M486.94,135.06H471a26.4,26.4,0,0,0-23.26,14c-.83,1.54-1.77,4.32-2.86,5.77-3,3.92-8.72,6.91-17.11,6.91-9.69,0-15.37-4.77-17.56-10.54v0a26.45,26.45,0,0,0-24.18-15.9H370.13a26.44,26.44,0,0,0-26.37,26.36v56.18c-1.25,8.82-7.92,17.49-15.91,17.49a8.89,8.89,0,0,1-.89-.07c-8.46-.67-15.25-10.93-15.25-20.32v3.1a26.44,26.44,0,0,0-26.36-26.37H269.42a26.44,26.44,0,0,0-26.36,26.37v100.6H243v7c-.54,9.94-8,20.39-17,20.39-9.38,0-17.05-11.27-17.05-21.53V218.09a26.44,26.44,0,0,0-26.36-26.37H166.67a26.44,26.44,0,0,0-26.37,26.37V356.53a26.44,26.44,0,0,0,26.37,26.36h15.92a26.2,26.2,0,0,0,12.2-3,26.71,26.71,0,0,0,9.23-8.06,25.81,25.81,0,0,0,2.34-3.95c.84-1.76,1.28-3.56,2.59-5.07a17.37,17.37,0,0,1,4-3.42A20.83,20.83,0,0,1,218.6,357a29.75,29.75,0,0,1,7.22-.84c9.69,0,17.12,5.44,17.12,10.52,0,1.16.12,127.58.12,127.58,0,30.67,68.65,18,68.65-49.4V263.17h.22c1.2-8.68,7.43-17.93,15-18.6h0c.3,0,.59-.07.89-.07,8,0,14.66,9.65,15.91,18.67v4.31h0V316.7h0v0a26.45,26.45,0,0,0,26.37,26.37h15.92a26.45,26.45,0,0,0,26.37-26.37V192.27c0-12.94,6.16-20.39,15.18-20.39,9.22,0,16.77,10.89,17,21,0,7.75.05,39.71.05,39.71,0,14.61,12.62,15.78,26.25,15.78a38.11,38.11,0,0,0,29.59-14.29c7.25-8.89,12.79-16.45,12.79-36.1V161.43a26.45,26.45,0,0,0-26.37-26.37" transform="translate(-140.3 -135.06)" style="fill: #fff"/>
  </g>
</svg>
